# xmcd
#
# Track frame offsets:
#	150
#	24684
#	43904
#	61281
#	87662
#	104729
#	125630
#	146018
#	167382
#
# Disc length: 2582 seconds
#
# Revision: 6
# Processed by: cddbd v1.5.2PL0 Copyright (c) Steve Scherf et al.
# Submitted via: Jack! The Knife 18 Bulletproof
#
DISCID=840a1409
DTITLE=Dire Straits - Communiqué
DYEAR=1979
DGENRE=Rock
TTITLE0=Once Upon A Time In The West
TTITLE1=News
TTITLE2=Where Do You Think You're Going?
TTITLE3=Communiqué
TTITLE4=Lady Writer
TTITLE5=Angel Of Mercy
TTITLE6=Portobello Belle
TTITLE7=Single Handed Sailor
TTITLE8=Follow Me Home
EXTD=Barry Beckett and Jerry Wexler
EXTT0=Mark Knofler
EXTT1=Mark Knofler
EXTT2=Mark Knofler
EXTT3=Mark Knofler
EXTT4=Mark Knofler
EXTT5=Mark Knofler
EXTT6=Mark Knofler
EXTT7=Mark Knofler
EXTT8=Mark Knofler
PLAYORDER=
